<svg xmlns="http://www.w3.org/2000/svg" xmlns:xlink="http://www.w3.org/1999/xlink" width="0" height="0" style="display:none;"><symbol viewBox="0 0 26 23" id="icon-academy">
<path fill-rule="evenodd" clip-rule="evenodd" d="M19.7047 0H6.29528L0.770782 15.4686L13 22.1391L25.2292 15.4686L19.7047 0ZM18.295 2L22.771 14.531L13 19.861L3.228 14.531L7.704 2H18.295ZM13.8838 5.03211L18.3838 13.5321L16.6162 14.4679L15.31 12H10.689L9.38379 14.4679L7.61622 13.5321L12.1162 5.03211H13.8838ZM13 7.636L11.748 10H14.251L13 7.636Z" fill="white"></path>
</symbol><symbol viewBox="0 0 20 20" id="icon-globe">
<path d="M14.0905 14H16.9175C16.0475 15.498 14.7115 16.694 13.1025 17.373C13.5215 16.253 13.8615 15.128 14.0905 14ZM8.92851 17.128C8.51251 16.089 8.20351 15.044 7.96851 14H12.0315C11.7965 15.044 11.4875 16.089 11.0715 17.128L10.7375 17.962C10.4945 17.985 10.2485 18 9.99951 18C9.75051 18 9.50551 17.985 9.26251 17.962L8.92851 17.128ZM5.90951 14C6.13851 15.128 6.47851 16.253 6.89751 17.373C5.28851 16.694 3.95251 15.498 3.08251 14H5.90951ZM2.26351 12C2.09751 11.359 1.99951 10.691 1.99951 10C1.99951 9.309 2.09751 8.641 2.26351 8H5.60351C5.53551 8.668 5.49951 9.335 5.49951 10C5.49951 10.665 5.53551 11.332 5.60351 12H2.26351ZM5.90951 6H3.08251C3.95251 4.502 5.28851 3.306 6.89751 2.627C6.47851 3.747 6.13851 4.872 5.90951 6ZM11.0715 2.872C11.4875 3.911 11.7965 4.956 12.0315 6H7.96851C8.20351 4.956 8.51251 3.911 8.92851 2.872L9.26251 2.038C9.50551 2.015 9.75051 2 9.99951 2C10.2485 2 10.4945 2.015 10.7375 2.038L11.0715 2.872ZM7.62351 12C7.54751 11.331 7.49951 10.664 7.49951 10C7.49951 9.336 7.54751 8.668 7.62351 8H12.3765C12.4525 8.668 12.4995 9.336 12.4995 10C12.4995 10.664 12.4525 11.331 12.3765 12H7.62351ZM14.0905 6C13.8615 4.872 13.5215 3.747 13.1025 2.627C14.7115 3.306 16.0475 4.502 16.9175 6H14.0905ZM17.7365 12H14.3955C14.4645 11.332 14.4995 10.665 14.4995 10C14.4995 9.335 14.4645 8.668 14.3955 8H17.7365C17.9025 8.641 17.9995 9.309 17.9995 10C17.9995 10.691 17.9025 11.359 17.7365 12ZM-0.000488281 10C-0.000488281 15.523 4.47751 20 9.99951 20C15.5225 20 19.9995 15.523 19.9995 10C19.9995 4.477 15.5225 0 9.99951 0C4.47751 0 -0.000488281 4.477 -0.000488281 10Z" fill="white"></path>
</symbol><symbol viewBox="0 0 24 16" id="icon-home">
<path fill-rule="evenodd" clip-rule="evenodd" d="M22 13H2V8C2 7.173 2.673 6.5 3.5 6.5C4.327 6.5 5 7.173 5 8V9C5 9.552 5.447 10 6 10H18C18.553 10 19 9.552 19 9V8C19 7.173 19.673 6.5 20.5 6.5C21.327 6.5 22 7.173 22 8V13ZM8 2H11V8H7C7 6.615 6.185 5.426 5.014 4.859C5.09 3.271 6.395 2 8 2ZM18.986 4.859C17.815 5.426 17 6.615 17 8H13V2H16C17.605 2 18.91 3.271 18.986 4.859ZM20.954 4.546C20.721 2.004 18.602 0 16 0H8C5.398 0 3.279 2.004 3.046 4.546C1.332 4.771 0 6.226 0 8V13C0 14.103 0.896 15 2 15V16H4V15H20V16H22V15C23.104 15 24 14.103 24 13V8C24 6.226 22.668 4.771 20.954 4.546Z" fill="white"></path>
</symbol><symbol viewBox="0 0 18 14" id="icon-pricing">
<path fill-rule="evenodd" clip-rule="evenodd" d="M0 1C0 1.55228 0.447715 2 1 2C1.55228 2 2 1.55228 2 1C2 0.44772 1.55228 0 1 0C0.447715 0 0 0.44772 0 1ZM18 0H4V2H18V0ZM1 8C0.447715 8 0 7.55228 0 7C0 6.44772 0.447715 6 1 6C1.55228 6 2 6.44772 2 7C2 7.55228 1.55228 8 1 8ZM18 6H4V8H18V6ZM1 14C0.447715 14 0 13.5523 0 13C0 12.4477 0.447715 12 1 12C1.55228 12 2 12.4477 2 13C2 13.5523 1.55228 14 1 14ZM18 12H4V14H18V12Z" fill="white"></path>
</symbol><symbol viewBox="0 0 20 17" id="icon-school">
<path fill-rule="evenodd" clip-rule="evenodd" d="M18 13H12C11.734 13 11.48 13.105 11.293 13.293L11 13.586V3.415L12.414 2H18V13ZM8 13H2V2H7.586L9 3.415V13.587L8.707 13.294C8.52 13.106 8.266 13 8 13ZM19 0H12C11.734 0 11.48 0.105 11.293 0.293L10 1.586L8.707 0.293C8.52 0.106 8.266 0 8 0H1C0.447 0 0 0.449 0 1V14C0 14.552 0.447 15 1 15H7.586L9.293 16.707C9.488 16.903 9.744 17 10 17C10.256 17 10.512 16.902 10.707 16.707L12.414 15H19C19.553 15 20 14.552 20 14V1C20 0.449 19.553 0 19 0Z" fill="white"></path>
</symbol><symbol viewBox="0 0 20 20" id="icon-work">
<path fill-rule="evenodd" clip-rule="evenodd" d="M2 12V9H4C4.266 9 4.52 8.895 4.707 8.707L6 7.415L8.293 9.707C8.684 10.098 9.316 10.098 9.707 9.707L11 8.415L12.293 9.707C12.488 9.902 12.744 10 13 10C13.256 10 13.512 9.902 13.707 9.707L17.999 5.415L17.997 12H2ZM18 2V2.586L13 7.586L11.707 6.293C11.316 5.902 10.684 5.902 10.293 6.293L9 7.586L6.707 5.293C6.316 4.902 5.684 4.902 5.293 5.293L3.586 7H2V2H18ZM18 0H2C0.896 0 0 0.898 0 2V12C0 13.103 0.896 14 2 14H7.585L1.586 19.999H4.414L9 15.414V19.999H11V15.414L15.586 19.999H18.414L12.415 14H18C19.104 14 20 13.103 20 12V2C20 0.898 19.104 0 18 0Z" fill="white"></path>
</symbol></svg>